/* XPM */
static char *_551812396597[] = {
/* columns rows colors chars-per-pixel */
"32 32 78 1 ",
"  c #987F6C",
". c #928853",
"X c #938953",
"o c #95865B",
"O c #96895A",
"+ c #958E60",
"@ c #9E8B65",
"# c #9A826D",
"$ c #999067",
"% c #9E956E",
"& c #94867B",
"* c #989670",
"= c #A0936D",
"- c #9FA27B",
"; c #746FFE",
": c #746FFF",
"> c #7D68FF",
", c #6B76FF",
"< c #617EFF",
"1 c #B15D9D",
"2 c #9A7B88",
"3 c #9B6F91",
"4 c #A76B94",
"5 c #A3709B",
"6 c #B85AA3",
"7 c #B253AC",
"8 c #9271AB",
"9 c #9667BE",
"0 c #837DB9",
"q c #A966A5",
"w c #AF6DA4",
"e c #CE49B3",
"r c #BB38F5",
"t c #BE34FF",
"y c #B43CFE",
"u c #B43CFF",
"i c #E223DE",
"p c #D81EFF",
"a c #EB0FFF",
"s c #F408FF",
"d c #E217FF",
"f c #CF25FE",
"g c #CF25FF",
"h c #C62DFF",
"j c #9E5CCE",
"k c #8F5AFA",
"l c #8F59FF",
"z c #9852FF",
"x c #AB43FF",
"c c #A14AFD",
"v c #A24AFF",
"b c #8664E9",
"n c #8660FF",
"m c #6C959F",
"M c #7E80B6",
"N c #7C80BE",
"B c #7C80BF",
"V c #32AFDB",
"C c #3D9BFF",
"Z c #17B9FF",
"A c #2BAAFF",
"S c #34A2FF",
"D c #20B2FF",
"F c #5B90CC",
"G c #469DDC",
"H c #698CC2",
"J c #6485D9",
"K c #43A9C5",
"L c #4F8CFF",
"P c #5885FF",
"I c #518CF9",
"U c #4694FF",
"Y c #0EC0FF",
"T c #81898D",
"R c #A58484",
"E c #AFAD92",
"W c #8384AF",
"Q c None",
/* pixels */
"QQQQQQQQQQQQQQQQQQQQQQQQQQQQQQQQ",
"QQQQQQQQQQQQQQQ$%QQQQQQQQQQQQQQQ",
"QQQQQQQQQQQQQ,:>nlQQQQQQQQQQQQQQ",
"QQQQQQQQQQQP<,:>nlzvQQQQQQQQQQQQ",
"QQQQQQQQQULP<,:>nlzvxu=QQQQQQQQQ",
"QQQQQQQSCULP<,:>nlzvxuthQQQQQQQQ",
"QQQQQDASCULP<,:>nlzvxuthgpQQQQQQ",
"QQQQQDASCULP<,0>nlzvx5rhgpQQQQQQ",
"QQQQQQASCUQP<QQQQQQQQQQQgpQQQQQQ",
"QQQQQQASQE+QQQQQQQQQQQQQQpQQQQQQ",
"QQQQKDQSQQQQQQQQQQQQQQQQQQQQQQQQ",
"QQQYZQXm*QQQQQQQQQQQQQQhgQdaiQQQ",
"QQQYZQQQCUQQQQQQQQQQQutQQQdaseQQ",
"QQQYZQQQQQLPQQQQQQQQx#QQQQdas@QQ",
"QQQYZQQQQQQQ<NQQQQzvQQQQQQdasQQQ",
"QQQYZQQQQQQQQM:>nlQQQQQQQQ6asQQQ",
"QQQYZDASCFIQQQQ>nQQQQQQQQQdasQQQ",
"QQQYZDASCULQQQQ>QQQQQQQQQQdasQQQ",
"QQQYZDASCULJQQQ>QQQQQQQQQQdasQQQ",
"QQQYZDASCULPQQ:>QQQQxutQQQdasQQQ",
"QQQYZDASCULPQQ:>QlzvxutwQQdasQQQ",
"QQQYZDASCULPQQ:>QlzvxuthQQdasQQQ",
"QQ-YZDASCULPQQ:>QlzvxuthQQdasQQQ",
"QQQYZDASCULPQ,:>blzv3uoOQQdaQQQQ",
"QQQQVDASCULTQN:>Q8zjQ RQ7pdQQQQQ",
"QQQQQQASCULXQW:Qnkzvxut4g1QQQQQQ",
"QQQQQQQGCULP<,:QnlzvxuthQQQQQQQQ",
"QQQQQQQQQULP<,:QnlzvxuqQQQQQQQQQ",
"QQQQQQQQQQHP<,:Q&lzvxQQQQQQQQQQQ",
"QQQQQQQQQQQQ<QQQQQ92QQQQQQQQQQQQ",
"QQQQQQQQQQQQQQQQQQQQQQQQQQQQQQQQ",
"QQQQQQQQQQQQQQQQQQQQQQQQQQQQQQQQ"
};
