/* XPM */
static char *_551812383934[] = {
/* columns rows colors chars-per-pixel */
"16 16 28 1 ",
"  c #948F60",
". c #8B8B70",
"X c #A79D7F",
"o c #796CFB",
"O c #796BFF",
"+ c #667AFF",
"@ c #BE509C",
"# c #947B9C",
"$ c #AF3FFE",
"% c #B03FFF",
"& c #F904FF",
"* c #E613FF",
"= c #D422FF",
"- c #C131FE",
"; c #C231FF",
": c #B34BCA",
"> c #AA4DDE",
", c #9D4EFF",
"< c #8B5DFF",
"1 c #51A3B6",
"2 c #1CB5FF",
"3 c #2BAFE8",
"4 c #2FA6FF",
"5 c #5389FF",
"6 c #4197FF",
"7 c #808B8F",
"8 c #A8AE91",
"9 c None",
/* pixels */
"9999999999999999",
"999999+O<,999999",
"999965+O<,%;9999",
"999465+O<,%;=999",
"998465999999=999",
"991999999999=*99",
"99399.9999%99*&9",
"99 999+9#9999*&9",
"9924659o99999*&9",
"9924659999>99*&9",
"9924659O<,%;9*@9",
"9924659O<,%:9*99",
"99946799X,$9=999",
"999965+O<,%;9999",
"999999+99,999999",
"9999999999999999"
};
