/* XPM */
static char *_551812408611[] = {
/* columns rows colors chars-per-pixel */
"64 64 248 2 ",
"   c #9F7B7B",
".  c #9D7E7A",
"X  c #A2796C",
"o  c #928852",
"O  c #938953",
"+  c #92855F",
"@  c #96875E",
"#  c #938A5A",
"$  c #98885C",
"%  c #918666",
"&  c #9E8067",
"*  c #968E62",
"=  c #98816C",
"-  c #9C846E",
";  c #908E68",
":  c #9A886B",
">  c #949267",
",  c #9D9267",
"<  c #92946D",
"1  c #98926A",
"2  c #98936B",
"3  c #878F72",
"4  c #8C8975",
"5  c #8C807D",
"6  c #848F7F",
"7  c #9D8972",
"8  c #9C8E7E",
"9  c #839A7B",
"0  c #949572",
"q  c #A28377",
"w  c #A48474",
"e  c #A5897B",
"r  c #A59973",
"t  c #A09D75",
"y  c #A19C76",
"u  c #AC9F7F",
"i  c #A7A07D",
"p  c #A6A27D",
"a  c #7C73DB",
"s  c #5F7FFF",
"d  c #796FEF",
"f  c #7774E4",
"g  c #7176ED",
"h  c #7F65FF",
"j  c #776EF9",
"k  c #766DFF",
"l  c #7B69FF",
"z  c #6D74FC",
"x  c #6D74FE",
"c  c #6D74FF",
"v  c #647CFD",
"b  c #647CFF",
"n  c #6A78F8",
"m  c #6878FE",
"M  c #6878FF",
"N  c #7270FB",
"B  c #7270FE",
"V  c #7270FF",
"C  c #907E8B",
"Z  c #967D8A",
"A  c #9A798C",
"S  c #8A7B96",
"D  c #897C94",
"F  c #8C7D94",
"G  c #887B9D",
"H  c #99729A",
"J  c #96789E",
"K  c #A56C83",
"L  c #AF6C85",
"P  c #A9678E",
"I  c #A07688",
"U  c #A17A89",
"Y  c #AF6594",
"T  c #BA6193",
"R  c #B37595",
"E  c #B57B9E",
"W  c #BA4EAB",
"Q  c #B950AA",
"!  c #BE49BB",
"~  c #BC4BBC",
"^  c #BA52B0",
"/  c #8F76A6",
"(  c #8B7DA4",
")  c #9074A3",
"_  c #8673B9",
"`  c #8A71BE",
"'  c #9570BA",
"]  c #C345BE",
"[  c #BA3FDE",
"{  c #BF3CE0",
"}  c #BC38F2",
"|  c #BE35F8",
" . c #BA36FD",
".. c #BB36FF",
"X. c #B73AFF",
"o. c #B23DFF",
"O. c #DE27CF",
"+. c #C73BCF",
"@. c #C437DB",
"#. c #DC1EF7",
"$. c #DE1BFB",
"%. c #D91FFB",
"&. c #DD1CF9",
"*. c #DF19FD",
"=. c #DF19FF",
"-. c #DB1CFF",
";. c #ED0EFF",
":. c #F607FE",
">. c #F706FF",
",. c #FB03FF",
"<. c #F20AFF",
"1. c #E21BF1",
"2. c #E21AF2",
"3. c #E415FF",
"4. c #E911FF",
"5. c #D625EB",
"6. c #CA2CF6",
"7. c #CD27FF",
"8. c #C42FFF",
"9. c #C82BFE",
"0. c #C92BFF",
"q. c #CC28FD",
"w. c #D623F3",
"e. c #D620FF",
"r. c #D224FF",
"t. c #C032FF",
"y. c #A75AC1",
"u. c #AF4DD9",
"i. c #B744DD",
"p. c #B049DC",
"a. c #A756D0",
"s. c #A058D7",
"d. c #8D6EC4",
"f. c #896ECC",
"g. c #9B60C7",
"h. c #8E65D9",
"j. c #9958E4",
"k. c #915BED",
"l. c #9B4FFF",
"z. c #9F4CFF",
"x. c #8D5BFC",
"c. c #8D5AFE",
"v. c #8D5AFF",
"b. c #885EFE",
"n. c #885EFF",
"m. c #9657F3",
"M. c #915AF4",
"N. c #9653FF",
"B. c #9157FF",
"V. c #9554FC",
"C. c #9B50FE",
"Z. c #AA4BE7",
"A. c #AD48E7",
"S. c #A14FEC",
"D. c #B146E6",
"F. c #B940E6",
"G. c #B242EC",
"H. c #A34BF7",
"J. c #AD42FC",
"K. c #AD41FE",
"L. c #AD41FF",
"P. c #A944FF",
"I. c #A448FF",
"U. c #8963EC",
"Y. c #8962F1",
"T. c #8462FE",
"R. c #8462FF",
"E. c #689D88",
"W. c #6F9F89",
"Q. c #759487",
"!. c #7E9081",
"~. c #7E9084",
"^. c #7D9984",
"/. c #7F8991",
"(. c #7F8A95",
"). c #6D9B92",
"_. c #5E94B7",
"`. c #6299AF",
"'. c #4DABB5",
"]. c #69A0A1",
"[. c #2BB8CF",
"{. c #37B0C2",
"}. c #37ACD5",
"|. c #3EAAD3",
" X c #33ADD9",
".X c #3A9FF5",
"XX c #3F98FD",
"oX c #3F99FF",
"OX c #3B9DFF",
"+X c #1EB3FF",
"@X c #19B7FF",
"#X c #15BAFF",
"$X c #11BEFF",
"%X c #27ADF6",
"&X c #2FA6F9",
"*X c #28ABFF",
"=X c #2DA8FF",
"-X c #38A1F2",
";X c #36A0FF",
":X c #32A4FF",
">X c #20B2FB",
",X c #23B0FF",
"<X c #4F99CE",
"1X c #5D94C1",
"2X c #5798C3",
"3X c #5694CE",
"4X c #6D82D3",
"5X c #6A81D9",
"6X c #5D87EC",
"7X c #5789EE",
"8X c #4697EF",
"9X c #5090ED",
"0X c #4D8EFD",
"qX c #4C8EFF",
"wX c #5D83F7",
"eX c #5887F7",
"rX c #5687FF",
"tX c #5B83FD",
"yX c #5A83FF",
"uX c #538AF8",
"iX c #518AFE",
"pX c #518AFF",
"aX c #4B91F6",
"sX c #4495FF",
"dX c #4892FF",
"fX c #0CC2FF",
"gX c #8B8F83",
"hX c #928E83",
"jX c #878590",
"kX c #8E8594",
"lX c #848B92",
"zX c #818798",
"xX c #A29B80",
"cX c #A99B81",
"vX c #A68395",
"bX c #AD8695",
"nX c #AA9C93",
"mX c #ACA382",
"MX c #AEA282",
"NX c #A8A481",
"BX c #A9A98D",
"VX c #B0A688",
"CX c #8A87A2",
"ZX c #9884A3",
"AX c #9083AC",
"SX c #9282AC",
"DX c #9480AC",
"FX c None",
/* pixels */
"FXFXFXFXFXFXFXFXFXFXFXFXFXFXFXFXFXFXFXFXFXFXFXFXFXFXFXFXFXFXFXFXFXFXFXFXFXFXFXFXFXFXFXFXFXFXFXFXFXFXFXFXFXFXFXFXFXFXFXFXFXFXFXFX",
"FXFXFXFXFXFXFXFXFXFXFXFXFXFXFXFXFXFXFXFXFXFXFXFXFXFXFXFXFXFXFXFXFXFXFXFXFXFXFXFXFXFXFXFXFXFXFXFXFXFXFXFXFXFXFXFXFXFXFXFXFXFXFXFX",
"FXFXFXFXFXFXFXFXFXFXFXFXFXFXFXFXFXFXFXFXFXFXFXFXFXFXFXFXFXFXFXFXFXFXFXFXFXFXFXFXFXFXFXFXFXFXFXFXFXFXFXFXFXFXFXFXFXFXFXFXFXFXFXFX",
"FXFXFXFXFXFXFXFXFXFXFXFXFXFXFXFXFXFXFXFXFXFXFXFXFXFXFXFXFXj l h R.U.FXFXFXFXFXFXFXFXFXFXFXFXFXFXFXFXFXFXFXFXFXFXFXFXFXFXFXFXFXFX",
"FXFXFXFXFXFXFXFXFXFXFXFXFXFXFXFXFXFXFXFXFXFXFXFXFXFXFXc V k l h R.n.v.k.FXFXFXFXFXFXFXFXFXFXFXFXFXFXFXFXFXFXFXFXFXFXFXFXFXFXFXFX",
"FXFXFXFXFXFXFXFXFXFXFXFXFXFXFXFXFXFXFXFXFXFXFXFXFXb m c V k l h R.n.v.B.N.j.FXFXFXFXFXFXFXFXFXFXFXFXFXFXFXFXFXFXFXFXFXFXFXFXFXFX",
"FXFXFXFXFXFXFXFXFXFXFXFXFXFXFXFXFXFXFXFXFXFXFXwXs b m c V k l h R.n.v.B.N.l.z.s.FXFXFXFXFXFXFXFXFXFXFXFXFXFXFXFXFXFXFXFXFXFXFXFX",
"FXFXFXFXFXFXFXFXFXFXFXFXFXFXFXFXFXFXFXFXFX7XrXyXs b m c V k l h R.n.v.B.N.l.z.I.P.a.FXFXFXFXFXFXFXFXFXFXFXFXFXFXFXFXFXFXFXFXFXFX",
"FXFXFXFXFXFXFXFXFXFXFXFXFXFXFXFXFXFXFX9XqXpXrXyXtXb m c V k l h R.n.v.B.N.l.z.I.P.L.o.u.FXFXFXFXFXFXFXFXFXFXFXFXFXFXFXFXFXFXFXFX",
"FXFXFXFXFXFXFXFXFXFXFXFXFXFXFXFXFX8XsXdXqXpXrXyXb b m c V k l h R.n.v.B.N.l.z.I.P.L.o.X...i.FXFXFXFXFXFXFXFXFXFXFXFXFXFXFXFXFXFX",
"FXFXFXFXFXFXFXFXFXFXFXFXFXFXFX.XOXoXsXdXqXpXrXyXtXb m c V k l h R.n.v.B.N.l.z.I.P.L.o.X...t.8.{ FXFXFXFXFXFXFXFXFXFXFXFXFXFXFXFX",
"FXFXFXFXFXFXFXFXFXFXFXFXFX&X:X;XOXoXsXdXqXpXrXyXb b m c V k l h R.n.v.B.N.l.z.I.P.L.o.X...t.8.0.7.@.FXFXFXFXFXFXFXFXFXFXFXFXFXFX",
"FXFXFXFXFXFXFXFXFXFXFX%X*X=X:X;XOXoXsXdX0XpXrXyXtXb b c V k l h R.n.v.B.N.l.z.I.P.L.o.X...t.8.0.7.r.e.+.FXFXFXFXFXFXFXFXFXFXFXFX",
"FXFXFXFXFXFXFXFXFXFX+X,X*X=X:X;XOXXXsXdXqX0XrXyXb b M c V k l h R.n.v.B.N.l.z.I.P.L.o.X...t.8.0.7.r.e.-.=.FXFXFXFXFXFXFXFXFXFXFX",
"FXFXFXFXFXFXFXFXFXFX+X,X*X=X:X;XOXXXsXdXqXpXrXyXb b M c V k l h R.n.v.B.N.l.z.I.P.L.o.X...t.8.0.7.r.e.-.=.FXFXFXFXFXFXFXFXFXFXFX",
"FXFXFXFXFXFXFXFXFXFX+Xt *X=X:X;XOXXXsXdXy uXrXyXs b M c FXFXFX_ R.n.v.B.N.l.z.I.P.vXFXFXFXbX8.0.7.r.e.-.=.FXFXFXFXFXFXFXFXFXFXFX",
"FXFXFXFXFXFXFXFXFXFX+XFX*X=X:Xp OXoXsX2 FXpXrXyXb b jXFXFXFXFXFXFXFXnXJ V.C.FXFXFXFXFXFXFXFXFX0.7.r.e.-.=.FXFXFXFXFXFXFXFXFXFXFX",
"FXFXFXFXFXFXFXFXFXFX+XFX*X=X:X2X~.oXsXFXFXpXrXyX5XFXFXFXFXFXFXFXFXFXFXFXFXFXFXFXFXFXFXFXFXFXFXFX7.r.e.-.=.FXFXFXFXFXFXFXFXFXFXFX",
"FXFXFXFXFXFXFXFXFXFX|.FX*X=X:X;XFXoXsXFXFXpX* FXFXFXFXFXFXFXFXFXFXFXFXFXFXFXFXFXFXFXFXFXFXFXFXFXFXr.e.-.=.FXFXFXFXFXFXFXFXFXFXFX",
"FXFXFXFXFXFXFXFXFXFX^.FX*X=X:X;XFXFXNXFXFXFXFXFXFXFXFXFXFXFXFXFXFXFXFXFXFXFXFXFXFXFXFXFXFXFXFXFXFXFXe.%.FXFXFXFXFXFXFXFXFXFXFXFX",
"FXFXFXFXFXFXFXFXFXFX>X,X< =X:X;X3 FXFXFXFXFXFXFXFXFXFXFXFXFXFXFXFXFXFXFXFXFXFXFXFXFXFXFXFXFXFXFXFXFXK FXFXFXFXFXFXFXFXFXFXFXFXFX",
"FXFXFXFXFXFXFXFX#X@X].,XFXFX`.;XFXFXFXFXFXFXFXFXFXFXFXFXFXFXFXFXFXFXFXFXFXFXFXFXFXFXFXFXFXFXFXFXq r.e.FXR 3.2.FXFXFXFXFXFXFXFXFX",
"FXFXFXFXFXFX'.$X#X@XFXFXFXFXFX!.FXFXFXFXFXFXFXFXFXFXFXFXFXFXFXFXFXFXFXFXFXFXFXFXFXFXFXFXFXFXFX0.7.r.~ -.=.3.4.;.L FXFXFXFXFXFXFX",
"FXFXFXFXFXFXfX$X#X@XFXFXFXFX:X;XOX3XFXFXFXFXFXFXFXFXFXFXFXFXFXFXFXFXFXFXFXFXFXFXFXFXFXFXFXF.8.0.q.FXFXY =.3.4.;.<.:.FXFXFXFXFXFX",
"FXFXFXFXFXFXfX$X#X@XFXFXFXFXFX; OXoXsX2 FXFXFXFXFXFXFXFXFXFXFXFXFXFXFXFXFXFXFXFXFXFXFXI ..t.t.FXFXFXFXFX3.3.4.;.<.:.,.FXFXFXFXFX",
"FXFXFXFXFXFXfX$X#X@Xo FXFXFXFXFXFX1XsXdXqXFXFXFXFXFXFXFXFXFXFXFXFXFXFXFXFXFXFXFXFXFXo.X...  FXFXFXFXFXFX=.3.4.;.<.>.,.FXFXFXFXFX",
"FXFXFXFXFXFXfX$X#X@XFXFXFXFXFXFXFXFXFXaXqXpXeXFXFXFXFXFXFXFXFXFXFXFXFXFXFXFXFXFXP.L.o.D.FXFXFXFXFXFXFXFX5.3.4.;.<.>.,.FXFXFXFXFX",
"FXFXFXFXFXFXfX$X#X XFXFXFXFXFXFXFXFXFXFXFXpXrXyXzXFXFXFXFXFXFXFXFXFXFXFXFXFXg.I.P.L.FXFXFXFXFXFXFXFXFXFXQ 3.4.;.<.>.,.FXFXFXFXFX",
"FXFXFXFXFXFXfX$X#X}.FXFXFXFXFXFXFXFXFXFXFXFX(.yXs b FXFXFXFXFXFXFXFXFXFXZ C.z.I.FXFXFXFXFXFXFXFXFXFXFXFX$ 3.4.;.<.>.,.FXFXFXFXFX",
"FXFXFXFXFXFXfX$X#X@XFXFXFXFXFXFXFXFXFXFXFXFXFXFX4Xb m c FXFXFXFXFXFXFXB.C.C.H FXFXFXFXFXFXFXFXFXFXFXFXFXFX3.4.;.<.>.,.FXFXFXFXFX",
"FXFXFXFXFXFXfX$X#X@X> FXFXFXFXFXFXFXFXFXFXFXFXFXFXFXm c V a AXAXDXY.v.B.m.FXFXFXFXFXFXFXFXFXFXFXFXFXFXFXFX3.4.;.<.>.,.FXFXFXFXFX",
"FXFXFXFXFXFXfX$X#X@X+XFXFXFXFXFXFXFXFXFXFXFXFXFXFXFXFXxXV k l h R.n.v.FXFXFXFXFXFXFXFXFXFXFXFXFXFXFXFXFXFX3.4.;.<.>.,.FXFXFXFXFX",
"FXFXFXFXFXFXfX$X#X@X+X,X*X=X-X<X_.BXFXFXFXFXFXFXFXFXFXFXFXk l h R.n.FXFXFXFXFXFXFXFXFXFXFXFXFXFXFXFXFXFX#.3.4.;.<.>.O.FXFXFXFXFX",
"FXFXFXFXFXFXfX$X#X@X+X,X*X=X:X;XOXoXsXdXqXpXFXFXFXFXFXFXFXkXl h R.FXFXFXFXFXFXFXFXFXFXFXFXFXFXFXFXFXFXFX&.3.4.;.<.>.T FXFXFXFXFX",
"FXFXFXFX[.FXfX$X#X@X+X,X*X=X:X;XOXoXsXdXqXpX6XFXFXFXFXFXFXFXl h R.FXFXFXFXFXFXFXFXFXFXFXFXFXFXFXFXFXFXFX%.3.4.;.<.>.X FXFXFXFXFX",
"FXFXFXFXW.FXfX$X#X@X+X,X*X=X:X;XOXoXsXdXqXpXrXFXFXFXFXFXFXFX( h FXFXFXFXFXFXFXFXFXFXFXFXFXFXFXFXFXFXFXFX3.3.4.;.<.>.FXFXFXFXFXFX",
"FXFXFXFXE.FXfX$X#X@X+X,X*X=X:X;XOXoXsXdXqXpXrXFXFXFXFXFXFXFX( h FXFXFXFXFXFXFXFXFXFXFXFXFXFXFXFXFXFXFXFX3.3.4.;.<.>.FXFXFXFXFXFX",
"FXFXFXFXFXFXfX$X#X@X+X,X*X=X:X;XOXoXsXdXqXpXrXFXFXFXFXFXFXFX( h FXFXFXFXFXFXFXFXFXFX7 ..FXFXFXFXFXFXFX~ =.3.4.;.<.>.FXFXFXFXFXFX",
"FXFXFXFXFXFXfX$X#X@X+X,X*X=X:X;XOXoXsXdXqXpXrXFXFXFXFXFXFXk ( h FXFXFXFXFXFXFXFXFXL.o.X...FXFXFXFXFXFX-.=.3.4.;.<.>.FXFXFXFXFXFX",
"FXFXFXFXFXFXfX$X#X@X+X,X*X=X:X;XOXoXsXdXqXpXrXlXFXFXFXFXV k ( h FX8 FXFXFXFXVXH.L.L.o.X...t.FXFXFXFXFXFX=.3.4.4.<.>.FXFXFXFXFXFX",
"FXFXFXFXFXFXfX$X#X@X+X,X*X=X:X;XOXoXsXdXqXpXrXyXFXFXFXFXV k ( h FXFXv.B.N.l.z.I.P.L.o.X...t.[ FXFXFXFXFXQ 3.4.;.<.>.FXFXFXFXFXFX",
"FXFXFXFXFXFXfX$X#X@X+X,X*X=X:X;XOXoXsXdXqXpXrXyXFXFXFXFXV k G h FXFXv.B.N.l.z.I.P.L.o.X...t.8.FXFXFXFXFX] 3.4.;.<.>.FXFXFXFXFXFX",
"FXFXFXFXFXFXfX$X#X@X+X,X*X=X:X;XOXoXsXdXqXpXrXyXFXFXFXFXV k D l FXZXv.B.N.l.z.I.P.L.o.X...t.8.FXFXFXFXFX=.3.4.;.<.>.FXFXFXFXFXFX",
"FXFXFXFXFXFXfX$X#X@X+X,X*X=X:X;XOXoXsXdXqXpXrXyXFXFXFXFXV k 5 R.FXd.v.B.N.l.z.I.P.L.o.X...t.8.FXFXFXFXFX=.3.4.;.<.>.FXFXFXFXFXFX",
"FXFXFXFXFXFXfX$X#X@X+X,X*X=X:X;XOXoXsXdXqXpXrXyXFXFXFXCXV k % h FXn.v.B.V.z.z.I.P.L.o.X.....8.FXFXFXFXFX=.3.4.;.<.>.FXFXFXFXFXFX",
"FXFXFXFXFX{.fX$X#X@X+X,X*X=X:X;XOXoXsXdXqXpXrXyXFXFXFXc V k o h FXn.v.B.V.C.z.I.P.L.o.X...t.t.FXFXFXFXFX=.3.4.4.<.& FXFXFXFXFXFX",
"FXFXFXFXFXFXfX$X#X@X+X,X*X=X:X;XOXoXsXdXqXpXrXyXFXFXFXc V k # h FXn.h.B.V.l.z.I.P.L.o.X...t.t.FXFXFXFXFX=.3.4.;.<.FXFXFXFXFXFXFX",
"FXFXFXFXFXFX9 $X#X@X+X,X*X=X:X;XOXoXsXdXqXpXrXyXFXFXi c V k G h FXn.x.B.N.l.z.A cX= o.X.FXr 9.FXFXFXFXFX3.3.4.;.FXFXFXFXFXFXFXFX",
"FXFXFXFXFXFXFXFX#X@X+X,X*X=X:X;XOXoXsXdXqXpXrXFXFXFXn c V d ( h FXFX+ M.N.l.FX: FXZ.U G.FX- FXFXFXP E ^ =.3.1.FXFXFXFXFXFXFXFXFX",
"FXFXFXFXFXFXFXFXFX).+X,X*X=X:X;XOXoXsXdXqXpX/.FXFXFXhXg V FX( S FX/ mX' N.C.z.I.cX7 y.p., FXFXFXFXr.e.-.3.w FXFXFXFXFXFXFXFXFXFX",
"FXFXFXFXFXFXFXFXFXFXFX,X*X=X:X;XOXoXsXdXqXpXFXFXFXFXFXFXN k FXF C n.) B.N.l.z.I.P.L.o.$ ..FXFXFXFXr.e.w.FXFXFXFXFXFXFXFXFXFXFXFX",
"FXFXFXFXFXFXFXFXFXFXFXFXQ.=X:X;XOXoXsXdXqXpXrXyXs b m c V k FXFXf.n.v.B.N.l.z.I.P.L.o.X...t.8.0.q.r.e FXFXFXFXFXFXFXFXFXFXFXFXFX",
"FXFXFXFXFXFXFXFXFXFXFXFXFXFX:X;XOXoXsXdXqXpXrXyXs b m c V k FXFXf.n.v.B.V.C.z.I.P.L.o.X...t.8.0.6.FXFXFXFXFXFXFXFXFXFXFXFXFXFXFX",
"FXFXFXFXFXFXFXFXFXFXFXFXFXFXFX0 OXoXsXsXqXpXrXyXs b m c V k FXFXf.n.v.B.C.C.z.I.P.L.o.X...t.8.FXFXFXFXFXFXFXFXFXFXFXFXFXFXFXFXFX",
"FXFXFXFXFXFXFXFXFXFXFXFXFXFXFXFXFXsXsXdXqXpXrXyXs b m c V k FXFXf.n.v.B.N.C.I.I.P.L.o.X.X.} FXFXFXFXFXFXFXFXFXFXFXFXFXFXFXFXFXFX",
"FXFXFXFXFXFXFXFXFXFXFXFXFXFXFXFXFXFX6 dXqXpXrXyXs b m c V k FXFXf.n.v.B.N.C.C.I.P.L.o.X.MXFXFXFXFXFXFXFXFXFXFXFXFXFXFXFXFXFXFXFX",
"FXFXFXFXFXFXFXFXFXFXFXFXFXFXFXFXFXFXFXFXqXpXrXyXs b m c V k FXFX` n.v.B.N.l.z.I.P.L.A.FXFXFXFXFXFXFXFXFXFXFXFXFXFXFXFXFXFXFXFXFX",
"FXFXFXFXFXFXFXFXFXFXFXFXFXFXFXFXFXFXFXFXFXgXrXyXs b m c f FXFXFXFXFXv.B.N.l.z.I.P.FXFXFXFXFXFXFXFXFXFXFXFXFXFXFXFXFXFXFXFXFXFXFX",
"FXFXFXFXFXFXFXFXFXFXFXFXFXFXFXFXFXFXFXFXFXFXFXtXs b m FXFXFXFXFXFXFXFXFXN.l.z.S.FXFXFXFXFXFXFXFXFXFXFXFXFXFXFXFXFXFXFXFXFXFXFXFX",
"FXFXFXFXFXFXFXFXFXFXFXFXFXFXFXFXFXFXFXFXFXFXFXFX4 FXFXFXFXFXFXFXFXFXFXFXFXFXFXFXFXFXFXFXFXFXFXFXFXFXFXFXFXFXFXFXFXFXFXFXFXFXFXFX",
"FXFXFXFXFXFXFXFXFXFXFXFXFXFXFXFXFXFXFXFXFXFXFXFXFXFXFXFXFXFXFXFXFXFXFXFXFXFXFXFXFXFXFXFXFXFXFXFXFXFXFXFXFXFXFXFXFXFXFXFXFXFXFXFX",
"FXFXFXFXFXFXFXFXFXFXFXFXFXFXFXFXFXFXFXFXFXFXFXFXFXFXFXFXFXFXFXFXFXFXFXFXFXFXFXFXFXFXFXFXFXFXFXFXFXFXFXFXFXFXFXFXFXFXFXFXFXFXFXFX",
"FXFXFXFXFXFXFXFXFXFXFXFXFXFXFXFXFXFXFXFXFXFXFXFXFXFXFXFXFXFXFXFXFXFXFXFXFXFXFXFXFXFXFXFXFXFXFXFXFXFXFXFXFXFXFXFXFXFXFXFXFXFXFXFX",
"FXFXFXFXFXFXFXFXFXFXFXFXFXFXFXFXFXFXFXFXFXFXFXFXFXFXFXFXFXFXFXFXFXFXFXFXFXFXFXFXFXFXFXFXFXFXFXFXFXFXFXFXFXFXFXFXFXFXFXFXFXFXFXFX"
};
